<svg preserveAspectRatio="none" overflow="visible" style="display: block;" width="30" height="16" viewBox="0 0 30 16" fill="none" xmlns="http://www.w3.org/2000/svg">
<g id="Frame 37">
<path id="Track" d="M1.125 15C0.503681 15 -0.00438674 14.4956 0.0421689 13.876C0.161267 12.2911 0.531728 10.7326 1.14181 9.25975C1.89563 7.43987 3.00052 5.78628 4.3934 4.3934C5.78628 3.00052 7.43987 1.89563 9.25975 1.14181C11.0796 0.38799 13.0302 3.44671e-06 15 3.70503e-06C16.9698 3.96334e-06 18.9204 0.387991 20.7403 1.14181C22.5601 1.89563 24.2137 3.00052 25.6066 4.3934C26.9995 5.78628 28.1044 7.43987 28.8582 9.25975C29.4683 10.7326 29.8387 12.2911 29.9578 13.876C30.0044 14.4956 29.4963 15 28.875 15V15C28.2537 15 27.7552 14.4954 27.7004 13.8765C27.5863 12.5872 27.2764 11.3206 26.7795 10.1208C26.1387 8.57389 25.1996 7.16834 24.0156 5.98439C22.8317 4.80045 21.4261 3.86129 19.8792 3.22054C18.3323 2.57979 16.6744 2.25 15 2.25C13.3256 2.25 11.6677 2.57979 10.1208 3.22054C8.57389 3.86129 7.16834 4.80044 5.98439 5.98439C4.80044 7.16834 3.86129 8.57389 3.22054 10.1208C2.72356 11.3206 2.41366 12.5872 2.2996 13.8765C2.24485 14.4954 1.74632 15 1.125 15V15Z" fill="#707070"/>
<path id="Progress" d="M1.125 15C0.503681 15 -0.00438936 14.4956 0.0421615 13.876C0.241102 11.2282 1.1402 8.67325 2.65653 6.47717C4.3865 3.97168 6.83797 2.05197 9.68515 0.973159C12.5323 -0.105654 15.6404 -0.292484 18.5963 0.437499C21.1872 1.07733 23.5536 2.39496 25.4573 4.24611C25.9027 4.67927 25.8564 5.3937 25.3911 5.80543V5.80543C24.9258 6.21716 24.218 6.16956 23.7669 5.74234C22.1702 4.23022 20.2042 3.15217 18.0569 2.62187C15.5443 2.00139 12.9025 2.16019 10.4824 3.07718C8.06227 3.99418 5.97852 5.62593 4.50805 7.7556C3.25131 9.57572 2.49338 11.6859 2.2996 13.8764C2.24485 14.4953 1.74632 15 1.125 15V15Z" fill="#CDEC19"/>
</g>
</svg>
