<svg preserveAspectRatio="none" overflow="visible" style="display: block;" width="5.66434" height="12.35" viewBox="0 0 5.66434 12.35" fill="none" xmlns="http://www.w3.org/2000/svg">
<path id="Vector" d="M3.87056 4.2309V2.69874C3.87056 2.15861 3.43254 1.72059 2.89241 1.72059C2.35229 1.72059 1.91426 2.15861 1.91426 2.69874V9.65126C1.91426 10.1914 2.35229 10.6294 2.89241 10.6294C3.43254 10.6294 3.87056 10.1914 3.87056 9.65126V7.69722H5.66434V9.52327C5.66434 9.90387 5.61405 10.2807 5.50219 10.6294C5.27473 11.3396 4.79129 11.9326 3.95464 12.1987C3.64949 12.2963 3.29666 12.35 2.89241 12.35C2.48817 12.35 2.10269 12.2963 1.78402 12.1987C0.910964 11.9326 0.406875 11.3396 0.169281 10.6294C0.0525488 10.2807 0 9.90387 0 9.52327V2.82673C0 2.4465 0.0521731 2.06928 0.168906 1.72059C0.406124 1.01156 0.909462 0.419261 1.78026 0.15239C2.09968 0.0540497 2.46902 0 2.89241 0C3.3158 0 3.65211 0.0540497 3.9584 0.15239C4.79279 0.419261 5.27511 1.01156 5.50219 1.72059C5.61405 2.06928 5.66434 2.4465 5.66434 2.82673V4.2309H3.87056Z" fill="#FEFEFE"/>
</svg>
